# xmcd
#
# Track frame offsets: 
#        150
#        20052
#        37644
#        57381
#        77090
#        103869
#        126544
#        144960
#
# Disc length: 2164 seconds
#
# Revision: 0
# Processed by: cddbd v1.5.2PL0 Copyright (c) Steve Scherf et al.
# Submitted via: ExactAudioCopyFreeDBPlugin 1.0
#
DISCID=68087208
DTITLE=Tumbleweed Town - After The Storm And The Fires
DYEAR=2005
DGENRE=Country
TTITLE0=A Minor
TTITLE1=Leaf In The Wind
TTITLE2=This Night
TTITLE3=Road Of Atonement
TTITLE4=Dream About Hope
TTITLE5=A Crumbling Mountain
TTITLE6=The Vehicle
TTITLE7=A.M.
EXTD=
EXTT0=
EXTT1=
EXTT2=
EXTT3=
EXTT4=
EXTT5=
EXTT6=
EXTT7=
PLAYORDER=
